<?xml version='1.0' encoding='utf-8'?>
<svg xmlns="http://www.w3.org/2000/svg" viewBox="0 0 668.57 604.02"> <defs> <filter id="d"> <feGaussianBlur stdDeviation=".386"/> </filter> <filter id="c"> <feGaussianBlur stdDeviation=".338"/> </filter> <filter id="k" x="-.0135" y="-.1107" width="1.0269" height="1.2213"> <feGaussianBlur stdDeviation="2.725"/> </filter> <linearGradient id="j" x2="0" y1="630.93" y2="95.219" gradientUnits="userSpaceOnUse"> <stop stop-color="#c87137" offset="0"/> <stop stop-color="#d38d5f" offset=".5"/> <stop stop-color="#a05a2c" offset="1"/> </linearGradient> <linearGradient id="i" x2="0" y1="630.93" y2="95.219" gradientUnits="userSpaceOnUse"> <stop stop-color="#c87137" offset="0"/> <stop stop-color="#c87137" offset=".5"/> <stop stop-color="#a05a2c" offset="1"/> </linearGradient> <linearGradient id="h" x1="68.571" x2="679.34" gradientUnits="userSpaceOnUse"> <stop stop-color="#784421" offset="0"/> <stop stop-color="#d38d5f" offset=".5"/> <stop stop-color="#784421" offset="1"/> </linearGradient> <linearGradient id="b" x2="0" y1="566.91" y2="585.62" gradientUnits="userSpaceOnUse"> <stop stop-color="#1a1a1a" offset="0"/> <stop stop-color="#fea" offset="1"/> </linearGradient> <linearGradient id="g" x2="0" y1="623.97" y2="674.02" gradientUnits="userSpaceOnUse"> <stop stop-color="#1a1a1a" offset="0"/> <stop stop-color="#fea" stop-opacity="0" offset="1"/> </linearGradient> <linearGradient id="a" x2="0" y1="652.94" y2="640.66" gradientUnits="userSpaceOnUse"> <stop stop-color="#fea" offset="0"/> <stop stop-color="#4d4d4d" offset="1"/> </linearGradient> <radialGradient id="f" cx="383.18" cy="329.97" r="323.26" gradientTransform="matrix(-.07549 1.176 -1.1339 -.07279 765.94 -65.95)" gradientUnits="userSpaceOnUse"> <stop stop-color="#fff6d5" offset="0"/> <stop stop-color="#fea" offset=".853"/> <stop stop-color="#fd5" offset="1"/> </radialGradient> <radialGradient id="e" cx="397" cy="329.01" r="258.6" gradientTransform="matrix(-.00042867 .99399 -1.2262 -.00052881 776.45 -35.224)" gradientUnits="userSpaceOnUse"> <stop stop-color="#dbe3db" offset="0"/> <stop stop-color="#a5baa5" offset=".725"/> <stop stop-color="#37483e" offset="1"/> </radialGradient> </defs> <g transform="translate(-38.571 -87.666)"> <path d="m129.8 626.06h485.88v59.094h-485.88z" fill="#1a1a1a" filter="url(#k)"/> <path d="m52.857 623.79s-5.7143-182.86-2.8571-248.57 20-262.86 20-262.86 181.43-17.143 282.86-15.714 315.71 15.714 315.71 15.714 27.143 165.71 27.143 248.57-2.8571 260-2.8571 260l-640 2.8571z" fill="url(#f)"/> <path d="m129.8 624.06h485.88v59.094h-485.88z" fill="#fea"/> <path d="m129.8 624.06h485.88v59.094h-485.88z" fill="url(#g)" opacity=".9"/> <path d="m138.48 670.22h44.286v2.1429h-44.286z" opacity=".5"/> <path d="m138.48 666.22h44.286v2.1429h-44.286z" opacity=".5"/> <path d="m138.48 662.22h44.286v2.1429h-44.286z" opacity=".5"/> <path d="m138.48 658.22h44.286v2.1429h-44.286z" opacity=".5"/> <path d="m138.48 654.22h44.286v2.1429h-44.286z" opacity=".5"/> <path d="m138.48 650.22h44.286v2.1429h-44.286z" opacity=".5"/> <path d="m138.48 646.22h44.286v2.1429h-44.286z" opacity=".5"/> <path d="m138.48 642.22h44.286v2.1429h-44.286z" opacity=".5"/> <path d="m138.48 638.22h44.286v2.1429h-44.286z" opacity=".5"/> <g transform="matrix(.66129 0 0 1 94.375 0)"> <path d="m138.48 670.22h44.286v2.1429h-44.286z" opacity=".5"/> <path d="m138.48 666.22h44.286v2.1429h-44.286z" opacity=".5"/> <path d="m138.48 662.22h44.286v2.1429h-44.286z" opacity=".5"/> <path d="m138.48 658.22h44.286v2.1429h-44.286z" opacity=".5"/> <path d="m138.48 654.22h44.286v2.1429h-44.286z" opacity=".5"/> <path d="m138.48 650.22h44.286v2.1429h-44.286z" opacity=".5"/> <path d="m138.48 646.22h44.286v2.1429h-44.286z" opacity=".5"/> <path d="m138.48 642.22h44.286v2.1429h-44.286z" opacity=".5"/> <path d="m138.48 638.22h44.286v2.1429h-44.286z" opacity=".5"/> </g> <g transform="matrix(.66129 0 0 1 126.85 0)"> <path d="m138.48 670.22h44.286v2.1429h-44.286z" opacity=".5"/> <path d="m138.48 666.22h44.286v2.1429h-44.286z" opacity=".5"/> <path d="m138.48 662.22h44.286v2.1429h-44.286z" opacity=".5"/> <path d="m138.48 658.22h44.286v2.1429h-44.286z" opacity=".5"/> <path d="m138.48 654.22h44.286v2.1429h-44.286z" opacity=".5"/> <path d="m138.48 650.22h44.286v2.1429h-44.286z" opacity=".5"/> <path d="m138.48 646.22h44.286v2.1429h-44.286z" opacity=".5"/> <path d="m138.48 642.22h44.286v2.1429h-44.286z" opacity=".5"/> <path d="m138.48 638.22h44.286v2.1429h-44.286z" opacity=".5"/> </g> <g transform="matrix(.66129 0 0 1 159.32 0)"> <path d="m138.48 670.22h44.286v2.1429h-44.286z" opacity=".5"/> <path d="m138.48 666.22h44.286v2.1429h-44.286z" opacity=".5"/> <path d="m138.48 662.22h44.286v2.1429h-44.286z" opacity=".5"/> <path d="m138.48 658.22h44.286v2.1429h-44.286z" opacity=".5"/> <path d="m138.48 654.22h44.286v2.1429h-44.286z" opacity=".5"/> <path d="m138.48 650.22h44.286v2.1429h-44.286z" opacity=".5"/> <path d="m138.48 646.22h44.286v2.1429h-44.286z" opacity=".5"/> <path d="m138.48 642.22h44.286v2.1429h-44.286z" opacity=".5"/> <path d="m138.48 638.22h44.286v2.1429h-44.286z" opacity=".5"/> </g> <g transform="matrix(-1 0 0 1 747.97 0)"> <path d="m138.48 670.22h44.286v2.1429h-44.286z" opacity=".5"/> <path d="m138.48 666.22h44.286v2.1429h-44.286z" opacity=".5"/> <path d="m138.48 662.22h44.286v2.1429h-44.286z" opacity=".5"/> <path d="m138.48 658.22h44.286v2.1429h-44.286z" opacity=".5"/> <path d="m138.48 654.22h44.286v2.1429h-44.286z" opacity=".5"/> <path d="m138.48 650.22h44.286v2.1429h-44.286z" opacity=".5"/> <path d="m138.48 646.22h44.286v2.1429h-44.286z" opacity=".5"/> <path d="m138.48 642.22h44.286v2.1429h-44.286z" opacity=".5"/> <path d="m138.48 638.22h44.286v2.1429h-44.286z" opacity=".5"/> </g> <g transform="matrix(-.66129 0 0 1 653.59 0)"> <path d="m138.48 670.22h44.286v2.1429h-44.286z" opacity=".5"/> <path d="m138.48 666.22h44.286v2.1429h-44.286z" opacity=".5"/> <path d="m138.48 662.22h44.286v2.1429h-44.286z" opacity=".5"/> <path d="m138.48 658.22h44.286v2.1429h-44.286z" opacity=".5"/> <path d="m138.48 654.22h44.286v2.1429h-44.286z" opacity=".5"/> <path d="m138.48 650.22h44.286v2.1429h-44.286z" opacity=".5"/> <path d="m138.48 646.22h44.286v2.1429h-44.286z" opacity=".5"/> <path d="m138.48 642.22h44.286v2.1429h-44.286z" opacity=".5"/> <path d="m138.48 638.22h44.286v2.1429h-44.286z" opacity=".5"/> </g> <g transform="matrix(-.66129 0 0 1 621.12 0)"> <path d="m138.48 670.22h44.286v2.1429h-44.286z" opacity=".5"/> <path d="m138.48 666.22h44.286v2.1429h-44.286z" opacity=".5"/> <path d="m138.48 662.22h44.286v2.1429h-44.286z" opacity=".5"/> <path d="m138.48 658.22h44.286v2.1429h-44.286z" opacity=".5"/> <path d="m138.48 654.22h44.286v2.1429h-44.286z" opacity=".5"/> <path d="m138.48 650.22h44.286v2.1429h-44.286z" opacity=".5"/> <path d="m138.48 646.22h44.286v2.1429h-44.286z" opacity=".5"/> <path d="m138.48 642.22h44.286v2.1429h-44.286z" opacity=".5"/> <path d="m138.48 638.22h44.286v2.1429h-44.286z" opacity=".5"/> </g> <g transform="matrix(-.66129 0 0 1 588.65 0)"> <path d="m138.48 670.22h44.286v2.1429h-44.286z" opacity=".5"/> <path d="m138.48 666.22h44.286v2.1429h-44.286z" opacity=".5"/> <path d="m138.48 662.22h44.286v2.1429h-44.286z" opacity=".5"/> <path d="m138.48 658.22h44.286v2.1429h-44.286z" opacity=".5"/> <path d="m138.48 654.22h44.286v2.1429h-44.286z" opacity=".5"/> <path d="m138.48 650.22h44.286v2.1429h-44.286z" opacity=".5"/> <path d="m138.48 646.22h44.286v2.1429h-44.286z" opacity=".5"/> <path d="m138.48 642.22h44.286v2.1429h-44.286z" opacity=".5"/> <path d="m138.48 638.22h44.286v2.1429h-44.286z" opacity=".5"/> </g> <g transform="matrix(-4.0394 0 0 1 1022.4 0)"> <path d="m138.48 670.22h44.286v2.1429h-44.286z" opacity=".5"/> <path d="m138.48 666.22h44.286v2.1429h-44.286z" opacity=".5"/> <path d="m138.48 662.22h44.286v2.1429h-44.286z" opacity=".5"/> <path d="m138.48 658.22h44.286v2.1429h-44.286z" opacity=".5"/> <path d="m138.48 654.22h44.286v2.1429h-44.286z" opacity=".5"/> <path d="m138.48 650.22h44.286v2.1429h-44.286z" opacity=".5"/> <path d="m138.48 646.22h44.286v2.1429h-44.286z" opacity=".5"/> <path d="m138.48 642.22h44.286v2.1429h-44.286z" opacity=".5"/> <path d="m138.48 638.22h44.286v2.1429h-44.286z" opacity=".5"/> </g> <path d="m88.388 125.93-23.837-30.714s233.37-7.5528 311.15-7.5528c77.788 0 311.15 7.5528 311.15 7.5528l-25.499 30.714s-230.92-10.993-286.48-10.993-286.48 10.993-286.48 10.993z" fill="url(#h)"/> <path transform="matrix(1.3137 0 0 1.3137 586.16 -122.73)" d="m-63.64 579.86c0 7.1131-5.7663 12.88-12.879 12.88s-12.879-5.7663-12.879-12.88 5.7663-12.879 12.879-12.879 12.879 5.7663 12.879 12.879z" fill="#1a1a1a" filter="url(#d)"/> <path transform="matrix(1.3137 0 0 1.3137 586.25 -123.83)" d="m-63.64 579.86c0 7.1131-5.7663 12.88-12.879 12.88s-12.879-5.7663-12.879-12.88 5.7663-12.879 12.879-12.879 12.879 5.7663 12.879 12.879z" fill="url(#b)"/> <path transform="matrix(1.3137 0 0 1.3137 630.16 -122.73)" d="m-63.64 579.86c0 7.1131-5.7663 12.88-12.879 12.88s-12.879-5.7663-12.879-12.88 5.7663-12.879 12.879-12.879 12.879 5.7663 12.879 12.879z" fill="#1a1a1a" filter="url(#d)"/> <path transform="matrix(1.3137 0 0 1.3137 630.25 -123.83)" d="m-63.64 579.86c0 7.1131-5.7663 12.88-12.879 12.88s-12.879-5.7663-12.879-12.88 5.7663-12.879 12.879-12.879 12.879 5.7663 12.879 12.879z" fill="url(#b)"/> <path transform="matrix(1.3137 0 0 1.3137 674.16 -122.73)" d="m-63.64 579.86c0 7.1131-5.7663 12.88-12.879 12.88s-12.879-5.7663-12.879-12.88 5.7663-12.879 12.879-12.879 12.879 5.7663 12.879 12.879z" fill="#1a1a1a" filter="url(#d)"/> <path transform="matrix(1.3137 0 0 1.3137 674.25 -123.83)" d="m-63.64 579.86c0 7.1131-5.7663 12.88-12.879 12.88s-12.879-5.7663-12.879-12.88 5.7663-12.879 12.879-12.879 12.879 5.7663 12.879 12.879z" fill="url(#b)"/> <path transform="matrix(1.3137 0 0 1.3137 276.45 -122.73)" d="m-63.64 579.86c0 7.1131-5.7663 12.88-12.879 12.88s-12.879-5.7663-12.879-12.88 5.7663-12.879 12.879-12.879 12.879 5.7663 12.879 12.879z" fill="#1a1a1a" filter="url(#d)"/> <path transform="matrix(1.3137 0 0 1.3137 276.54 -123.83)" d="m-63.64 579.86c0 7.1131-5.7663 12.88-12.879 12.88s-12.879-5.7663-12.879-12.88 5.7663-12.879 12.879-12.879 12.879 5.7663 12.879 12.879z" fill="url(#b)"/> <path transform="matrix(1.3137 0 0 1.3137 320.54 -122.73)" d="m-63.64 579.86c0 7.1131-5.7663 12.88-12.879 12.88s-12.879-5.7663-12.879-12.88 5.7663-12.879 12.879-12.879 12.879 5.7663 12.879 12.879z" fill="#1a1a1a" filter="url(#d)"/> <path transform="matrix(1.3137 0 0 1.3137 320.63 -123.83)" d="m-63.64 579.86c0 7.1131-5.7663 12.88-12.879 12.88s-12.879-5.7663-12.879-12.88 5.7663-12.879 12.879-12.879 12.879 5.7663 12.879 12.879z" fill="url(#b)"/> <path transform="matrix(1.3137 0 0 1.3137 364.54 -122.73)" d="m-63.64 579.86c0 7.1131-5.7663 12.88-12.879 12.88s-12.879-5.7663-12.879-12.88 5.7663-12.879 12.879-12.879 12.879 5.7663 12.879 12.879z" fill="#1a1a1a" filter="url(#d)"/> <path transform="matrix(1.3137 0 0 1.3137 364.63 -123.83)" d="m-63.64 579.86c0 7.1131-5.7663 12.88-12.879 12.88s-12.879-5.7663-12.879-12.88 5.7663-12.879 12.879-12.879 12.879 5.7663 12.879 12.879z" fill="url(#b)"/> <path d="m66.67 601.83 2.5254 30.305h612.15l1.5152-31.315-616.19 1.0102z" fill="#502d16"/> <path d="m136.88 687.7-14.647-1.0102-3.0305-57.074h28.284l-10.607 58.084z" fill="#502d16"/> <path d="m601.04 630.12 27.779-0.5051-5.0508 57.579h-12.122l-10.607-57.074z" fill="#502d16"/> <path d="m73.741 632.13h-29.294s-5.8753-160.77-5.8753-255.48c0-82.857 26-281.43 26-281.43l24.07 30.714s-20.07 172.51-20.07 250.71c0 87.099 5.1697 255.48 5.1697 255.48z" fill="url(#j)"/> <path d="m244.15 155.35h257.2a130 130 0 0 1 130 130v144.06a130 130 0 0 1-130 130h-257.2a130 130 0 0 1-130-130v-144.06a130 130 0 0 1 130-130" fill="url(#e)"/> <path d="m677.81 632.14h26.264s3.0665-145.49 3.0665-255.49c0-98.252-20.412-281.43-20.412-281.43l-24.305 30.714s16.146 182.86 16.146 250.71c0 80-0.7591 255.49-0.7591 255.49z" fill="url(#i)"/> <path d="m310.56 647.21h21.718v12.122h-21.718z" filter="url(#c)"/> <path d="m310.62 646.79h21.718v12.122h-21.718z" fill="url(#a)"/> <g transform="translate(44.75 -2.2728)"> <path d="m310.56 647.21h21.718v12.122h-21.718z" filter="url(#c)"/> <path d="m310.62 646.79h21.718v12.122h-21.718z" fill="url(#a)"/> </g> <g transform="translate(67.125 -1.5152)"> <path d="m310.56 647.21h21.718v12.122h-21.718z" filter="url(#c)"/> <path d="m310.62 646.79h21.718v12.122h-21.718z" fill="url(#a)"/> </g> <g transform="translate(111.87 -2.0203)"> <path d="m310.56 647.21h21.718v12.122h-21.718z" filter="url(#c)"/> <path d="m310.62 646.79h21.718v12.122h-21.718z" fill="url(#a)"/> </g> <g transform="translate(89.5 -3.0305)"> <path d="m310.56 647.21h21.718v12.122h-21.718z" filter="url(#c)"/> <path d="m310.62 646.79h21.718v12.122h-21.718z" fill="url(#a)"/> </g> <g transform="translate(22.375 -1.5152)"> <path d="m310.56 647.21h21.718v12.122h-21.718z" filter="url(#c)"/> <path d="m310.62 646.79h21.718v12.122h-21.718z" fill="url(#a)"/> </g> </g> </svg>